<?xml version="1.0" encoding="UTF-8" standalone="no"?>
<!-- Created with Inkscape (http://www.inkscape.org/) -->

<svg
   xmlns:dc="http://purl.org/dc/elements/1.1/"
   xmlns:cc="http://creativecommons.org/ns#"
   xmlns:rdf="http://www.w3.org/1999/02/22-rdf-syntax-ns#"
   xmlns:svg="http://www.w3.org/2000/svg"
   xmlns="http://www.w3.org/2000/svg"
   xmlns:sodipodi="http://sodipodi.sourceforge.net/DTD/sodipodi-0.dtd"
   xmlns:inkscape="http://www.inkscape.org/namespaces/inkscape"
   width="256"
   height="256"
   id="svg2"
   version="1.1"
   inkscape:version="0.48.4 r9939"
   sodipodi:docname="icon.svg">
  <defs
     id="defs4" />
  <sodipodi:namedview
     id="base"
     pagecolor="#ffffff"
     bordercolor="#666666"
     borderopacity="1.0"
     inkscape:pageopacity="0.0"
     inkscape:pageshadow="2"
     inkscape:zoom="1.6368889"
     inkscape:cx="242.11898"
     inkscape:cy="83.881496"
     inkscape:document-units="px"
     inkscape:current-layer="layer1"
     showgrid="false"
     inkscape:window-width="1600"
     inkscape:window-height="838"
     inkscape:window-x="-8"
     inkscape:window-y="-8"
     inkscape:window-maximized="1" />
  <metadata
     id="metadata7">
    <rdf:RDF>
      <cc:Work
         rdf:about="">
        <dc:format>image/svg+xml</dc:format>
        <dc:type
           rdf:resource="http://purl.org/dc/dcmitype/StillImage" />
        <dc:title></dc:title>
      </cc:Work>
    </rdf:RDF>
  </metadata>
  <g
     inkscape:label="レイヤー 1"
     inkscape:groupmode="layer"
     id="layer1"
     transform="translate(0,-796.36218)">
    <path
       style="fill:#000000;stroke:none"
       d="m 237.0245,865.71358 -9.29384,25.50721 c 0,0 -71.28799,0.10317 -104.54978,0.10317 -11.74219,0 -23.13018,8.77918 -31.339411,16.08582 -6.569381,5.84709 -10.172877,12.85773 -12.838706,21.24341 -3.263607,10.26607 -4.564478,22.56403 0,32.32035 3.752602,8.02098 11.542666,17.01071 20.3899,17.01071 l 42.478967,0 23.78822,-57.83642 50.1767,0.4039 -24.68933,77.84538 -117.241932,0 c -20.131235,-3.08383 -32.064975,-10.96465 -41.640955,-30.47262 -4.496978,-9.16114 -6.329954,-30.57285 -2.875642,-40.17555 7.223934,-20.08198 14.032818,-31.46476 31.729754,-43.36389 15.898715,-10.69003 33.978271,-18.6715 51.867485,-18.6715 45.38729,0 124.03857,3e-5 124.03857,3e-5 z"
       id="path2996"
       inkscape:connector-curvature="0"
       sodipodi:nodetypes="ccssssscccccssssc" />
  </g>
</svg>
